<svg xmlns="http://www.w3.org/2000/svg" width="456.193" height="357.519" viewBox="0 0 456.193 357.519">
  <g id="coupon_policy" transform="translate(-181.854 -196.681) rotate(13)">
    <path id="Path_1" data-name="Path 1" d="M294.558,249.607A19.6,19.6,0,0,0,282.434,274.5l42.292,122.6a19.548,19.548,0,0,0,24.891,12.124L673.241,297.593A19.6,19.6,0,0,0,685.364,272.7L643.073,150.1a19.547,19.547,0,0,0-24.893-12.122L471.368,188.618l3.8-.125.25-.008h.317l.124,0h.5l.311.044a11.227,11.227,0,0,1,6.581,19.429c-3.025,2.87-14.5,11.983-40.373,14.776-3.01.323-5.926.651-8.8.974-12.408,1.4-23.124,2.6-33.01,2.6-1.72,0-3.4-.037-4.985-.113a76.523,76.523,0,0,1-9.957-1.091c-5.962,5.723-8,12.3-10.143,19.226-2.22,7.167-4.737,15.29-12.159,20.452a19.18,19.18,0,0,1-11.02,3.456q-.46,0-.928-.021c-7.47-.353-14.966-4.926-20.05-12.233-3.965-5.7-5.61-11.858-5.07-17.487Zm262.468-27.155a2.762,2.762,0,0,1,1.552-1.429l10.514-3.846a2.753,2.753,0,0,1,2.73.487l13.61,11.549c.6.514,1.212,1.047,1.826,1.593q-.671-1.744-1.37-3.655l-4.26-11.626a2.755,2.755,0,0,1,1.64-3.536l8.268-3.026a2.757,2.757,0,0,1,3.534,1.64l14.578,39.775a2.754,2.754,0,0,1-1.64,3.536l-9.451,3.459a2.759,2.759,0,0,1-2.749-.506l-14.129-12.231c-.85-.733-1.955-1.7-3.214-2.844q1.035,2.727,2.1,5.64l4.39,11.98a2.757,2.757,0,0,1-1.64,3.536l-8.269,3.025a2.755,2.755,0,0,1-3.534-1.638l-14.578-39.776A2.759,2.759,0,0,1,557.026,222.452Zm-39.957,20.73a22.621,22.621,0,0,1,13.521-12.653,24.668,24.668,0,0,1,8.466-1.573c9.454,0,17.632,6.293,21.344,16.419,2.568,7.009,2.624,13.716.16,19.392-2.446,5.635-7.175,9.87-13.673,12.249a24.063,24.063,0,0,1-8.271,1.528c-9.459,0-17.66-6.344-21.4-16.558A26.131,26.131,0,0,1,517.069,243.182ZM475.8,251.959a82.426,82.426,0,0,1,12.285-5.474c6.148-2.25,11.062-2.663,15.159-1.29a15.066,15.066,0,0,1,9.337,9.313,16.328,16.328,0,0,1-.319,12.955c-2.234,4.457-6.7,8.01-12.922,10.287-.164.06-.326.117-.485.174l4.2,11.459a2.755,2.755,0,0,1-1.64,3.536l-8.919,3.264a2.754,2.754,0,0,1-3.534-1.64L474.578,255.3A2.755,2.755,0,0,1,475.8,251.959ZM431.186,268.5a2.761,2.761,0,0,1,1.552-1.429l9.038-3.307a2.758,2.758,0,0,1,3.535,1.64l8.39,22.9c1.069,2.914,2.931,6.387,5.74,6.387a5.037,5.037,0,0,0,1.718-.337,3.929,3.929,0,0,0,2.8-2.687c.454-1.587.14-3.932-.9-6.783l-8.391-22.9a2.754,2.754,0,0,1,1.64-3.535l8.977-3.286a2.758,2.758,0,0,1,3.535,1.64l8.175,22.307c2.449,6.684,2.633,12.509.548,17.316-2.043,4.706-6.128,8.209-12.145,10.41a23.618,23.618,0,0,1-8.073,1.565c-5.645,0-13.366-2.707-18.092-15.6l-8.133-22.19A2.759,2.759,0,0,1,431.186,268.5Zm-39.9,20.709a22.616,22.616,0,0,1,13.52-12.653,24.647,24.647,0,0,1,8.468-1.573c9.452,0,17.63,6.291,21.342,16.418,2.568,7.01,2.625,13.715.16,19.392-2.446,5.636-7.174,9.871-13.672,12.248a24.071,24.071,0,0,1-8.271,1.53c-9.46,0-17.661-6.346-21.4-16.56A26.12,26.12,0,0,1,391.289,289.209Zm-35.31,12.19c2.891-5.557,8.174-9.967,14.877-12.419a31.386,31.386,0,0,1,10.168-2.054,12.775,12.775,0,0,1,1.582.091A2.757,2.757,0,0,1,385,289.475l.786,7.81a2.76,2.76,0,0,1-.742,2.17,2.7,2.7,0,0,1-2.127.858,18.565,18.565,0,0,0-7.026,1.126,10.871,10.871,0,0,0-6.309,5.192c-1.236,2.518-1.212,5.575.073,9.079,1.266,3.454,3.915,7.57,9.355,7.57a13.545,13.545,0,0,0,4.626-.894,21.4,21.4,0,0,0,6.132-3.506,2.756,2.756,0,0,1,4.2.628l3.932,6.525a2.756,2.756,0,0,1-.355,3.314c-1.569,1.661-5.189,4.149-10.648,6.146a30.242,30.242,0,0,1-10.358,1.971c-9.85,0-17.618-5.783-21.314-15.868C352.586,314.4,352.847,307.416,355.979,301.4Z" fill="#b36e71"/>
    <path id="Path_2" data-name="Path 2" d="M414.8,310.975a6.591,6.591,0,0,0,2.264-.421,6.06,6.06,0,0,0,3.924-4.521,15.873,15.873,0,0,0-.948-8.96c-1.894-5.17-5.361-8.51-8.832-8.51a6.3,6.3,0,0,0-6.085,4.937,15.744,15.744,0,0,0,.923,8.959C408,307.79,411.276,310.973,414.8,310.975Z" fill="#b36e71"/>
    <path id="Path_3" data-name="Path 3" d="M492.937,258.273q-.62.228-1.122.442l2.612,7.131.428-.154a6.661,6.661,0,0,0,3.6-2.584,3.609,3.609,0,0,0,.123-3.2C497.738,257.627,495.826,257.215,492.937,258.273Z" fill="#b36e71"/>
    <path id="Path_4" data-name="Path 4" d="M540.584,264.948a6.574,6.574,0,0,0,2.265-.421,6.06,6.06,0,0,0,3.924-4.52,15.874,15.874,0,0,0-.949-8.96c-1.894-5.169-5.361-8.509-8.832-8.509a6.293,6.293,0,0,0-6.085,4.936,15.758,15.758,0,0,0,.923,8.958C533.784,261.764,537.057,264.948,540.584,264.948Z" fill="#b36e71"/>
    <path id="Path_5" data-name="Path 5" d="M271.406,259.116a4.131,4.131,0,0,0,5.48-2.034,26.245,26.245,0,0,1,15.386-13.973,4.132,4.132,0,1,0-2.707-7.808,34.431,34.431,0,0,0-20.192,18.334A4.135,4.135,0,0,0,271.406,259.116Z" fill="#b36e71"/>
    <path id="Path_6" data-name="Path 6" d="M450.469,184.169a4.128,4.128,0,0,0,5.254,2.559l23.351-8.055a4.133,4.133,0,1,0-2.7-7.813l-23.351,8.054A4.132,4.132,0,0,0,450.469,184.169Z" fill="#b36e71"/>
    <path id="Path_7" data-name="Path 7" d="M348.959,416.558a26.3,26.3,0,0,1-5.723.633h0a26.425,26.425,0,0,1-14.7-4.465,4.133,4.133,0,1,0-4.585,6.878,34.675,34.675,0,0,0,19.285,5.853h.005a34.6,34.6,0,0,0,7.522-.831,4.133,4.133,0,0,0-1.8-8.068Z" fill="#b36e71"/>
    <path id="Path_8" data-name="Path 8" d="M547.781,154.734a4.132,4.132,0,0,0,1.348-.226l23.35-8.055a4.133,4.133,0,0,0-2.7-7.814L546.432,146.7a4.133,4.133,0,0,0,1.349,8.039Z" fill="#b36e71"/>
    <path id="Path_9" data-name="Path 9" d="M501.079,170.845a4.109,4.109,0,0,0,1.348-.228l23.351-8.054a4.133,4.133,0,0,0-2.7-7.814L499.731,162.8a4.134,4.134,0,0,0,1.348,8.041Z" fill="#b36e71"/>
    <path id="Path_10" data-name="Path 10" d="M594.482,138.625a4.1,4.1,0,0,0,1.348-.227l20.1-6.935a27.14,27.14,0,0,1,2.86-.813,4.133,4.133,0,0,0-1.813-8.064,35.587,35.587,0,0,0-3.743,1.063l-20.105,6.935a4.134,4.134,0,0,0,1.348,8.041Z" fill="#b36e71"/>
    <path id="Path_11" data-name="Path 11" d="M675.485,304.1l-23.351,8.056a4.133,4.133,0,0,0,2.7,7.814l23.309-8.043c.03-.009.154-.051.183-.062a4.091,4.091,0,0,0,2.457-5.245A4.175,4.175,0,0,0,675.485,304.1Z" fill="#b36e71"/>
    <path id="Path_12" data-name="Path 12" d="M699.225,266.413a4.132,4.132,0,1,0-7.814,2.692l.464,1.35a26.371,26.371,0,0,1-.944,19.623,4.132,4.132,0,1,0,7.517,3.434,34.621,34.621,0,0,0,1.241-25.751Z" fill="#b36e71"/>
    <path id="Path_13" data-name="Path 13" d="M582.081,336.323l-23.352,8.055a4.133,4.133,0,1,0,2.7,7.814l23.352-8.055a4.133,4.133,0,0,0-2.7-7.814Z" fill="#b36e71"/>
    <path id="Path_14" data-name="Path 14" d="M310.363,232.5a4.129,4.129,0,0,0,5.255,2.561l13.73-4.737a20.229,20.229,0,0,1,6-6.462q.874-.609,1.775-1.22c-.708.031-1.411.058-2.1.081-.244.008-.485.012-.725.012-.337,0-.67-.008-1-.025a20.371,20.371,0,0,1-4.84-.82l-15.53,5.357A4.132,4.132,0,0,0,310.363,232.5Z" fill="#b36e71"/>
    <path id="Path_15" data-name="Path 15" d="M634.038,322.773a4.131,4.131,0,0,0-5.255-2.559l-23.351,8.055a4.133,4.133,0,1,0,2.7,7.814l23.351-8.055A4.133,4.133,0,0,0,634.038,322.773Z" fill="#b36e71"/>
    <path id="Path_16" data-name="Path 16" d="M639.23,134.45a26.226,26.226,0,0,1,10.355,13.4l1.551,4.5a4.132,4.132,0,1,0,7.813-2.694l-1.551-4.5A34.415,34.415,0,0,0,643.8,127.564a4.133,4.133,0,1,0-4.574,6.886Z" fill="#b36e71"/>
    <path id="Path_17" data-name="Path 17" d="M659.192,175.7l8.054,23.351a4.133,4.133,0,1,0,7.814-2.7l-8.055-23.352a4.133,4.133,0,1,0-7.813,2.7Z" fill="#b36e71"/>
    <path id="Path_18" data-name="Path 18" d="M281.867,306.651a4.133,4.133,0,0,0,2.559-5.255l-8.056-23.351a4.133,4.133,0,1,0-7.813,2.7l8.055,23.351a4.129,4.129,0,0,0,5.255,2.559Z" fill="#b36e71"/>
    <path id="Path_19" data-name="Path 19" d="M300.535,348.1l-8.054-23.351a4.133,4.133,0,1,0-7.814,2.7l8.055,23.351a4.133,4.133,0,1,0,7.813-2.7Z" fill="#b36e71"/>
    <path id="Path_20" data-name="Path 20" d="M493.931,371.1a4.132,4.132,0,0,0-5.255-2.559L465.325,376.6a4.133,4.133,0,1,0,2.7,7.814l23.351-8.054A4.133,4.133,0,0,0,493.931,371.1Z" fill="#b36e71"/>
    <path id="Path_21" data-name="Path 21" d="M447.229,387.212a4.133,4.133,0,0,0-5.255-2.56l-23.351,8.056a4.133,4.133,0,0,0,2.7,7.813l23.351-8.055A4.132,4.132,0,0,0,447.229,387.212Z" fill="#b36e71"/>
    <path id="Path_22" data-name="Path 22" d="M400.527,403.321a4.131,4.131,0,0,0-5.255-2.559l-23.351,8.055a4.133,4.133,0,1,0,2.7,7.813l23.351-8.054A4.133,4.133,0,0,0,400.527,403.321Z" fill="#b36e71"/>
    <path id="Path_23" data-name="Path 23" d="M677.859,217.15A4.134,4.134,0,0,0,675.3,222.4l8.054,23.352a4.133,4.133,0,0,0,7.814-2.7l-8.055-23.351A4.133,4.133,0,0,0,677.859,217.15Z" fill="#b36e71"/>
    <path id="Path_24" data-name="Path 24" d="M316.644,394.8l-8.054-23.352a4.133,4.133,0,0,0-7.814,2.7l8.055,23.351a4.132,4.132,0,0,0,7.813-2.7Z" fill="#b36e71"/>
    <path id="Path_25" data-name="Path 25" d="M540.633,354.993a4.134,4.134,0,0,0-5.255-2.559l-23.351,8.054a4.133,4.133,0,1,0,2.7,7.814l23.351-8.054A4.134,4.134,0,0,0,540.633,354.993Z" fill="#b36e71"/>
    <path id="Path_26" data-name="Path 26" d="M334.294,214.466c.148,0,.3,0,.449-.008,2.96-.1,6.1-.279,9.428-.472,5.255-.307,11.022-.623,16.744-.623q2.014,0,4.014.056c-5.456,4.324-11.429,8.285-17.02,11.968-2.783,1.834-5.412,3.565-7.842,5.257-6.268,4.362-6.864,12.842-1.451,20.621,3.573,5.136,8.806,8.469,13.654,8.7.18.008.361.012.539.012a10.926,10.926,0,0,0,6.3-1.972c5.094-3.543,6.986-9.654,8.989-16.122,2.6-8.409,5.554-17.88,15.781-25.707a63.906,63.906,0,0,0,12.6,1.768q2.248.105,4.6.1c9.434,0,20.075-1.2,32.127-2.552q4.263-.48,8.8-.974c24.44-2.638,34.306-11.343,35.614-12.6a2.96,2.96,0,0,0-1.828-5.163l-.015,0H475.5l-66.968,2.2,54.992-38.265a2.972,2.972,0,0,0-1.225-5.357,12.87,12.87,0,0,0-1.412-.128c-.355-.016-.764-.027-1.222-.027-5.18,0-16.823,1.386-33.645,11.313q-3.93,2.32-7.638,4.48c-17.337,10.128-31.131,18.252-39.859,28.889-.072,0-.144,0-.217,0l-.659,0c-.2,0-.4,0-.6-.011-12.042-.568-19.752-6.187-26.555-11.145-5.133-3.742-9.983-7.277-15.666-7.544q-.34-.017-.684-.016c-.163,0-.328,0-.492.008-4.369.142-8.009,2.68-10.249,7.143-3.238,6.454-2.805,15.452,1.007,20.932a11.652,11.652,0,0,0,9.271,5.231Q333.983,214.466,334.294,214.466Zm17.767,36.9c-2.439-.115-4.951-2.013-6.641-4.44a8.74,8.74,0,0,1,1.916-12.162,11.75,11.75,0,0,1,6.335-2.481c.093,0,.185,0,.277.007a5.314,5.314,0,0,1,4.239,2.507c2.657,3.819,1.172,10.981-2.17,14.773a4.85,4.85,0,0,1-3.722,1.8C352.217,251.367,352.139,251.366,352.061,251.362ZM329.3,198.209a13.355,13.355,0,0,1,.045-1.6c.014-.159.05-.309.069-.467.047-.367.09-.734.168-1.09.043-.2.111-.378.164-.57.083-.3.158-.6.265-.891.074-.195.173-.366.258-.551a8.165,8.165,0,0,1,.366-.758c.1-.177.235-.324.353-.488a6.289,6.289,0,0,1,.467-.618,5.352,5.352,0,0,1,.444-.382,5.044,5.044,0,0,1,.572-.464,4.791,4.791,0,0,1,.534-.247,4.222,4.222,0,0,1,.682-.284,4.76,4.76,0,0,1,.621-.089,4.64,4.64,0,0,1,.657-.093c.085,0,.171,0,.258.007a6.269,6.269,0,0,1,.992.13,15.031,15.031,0,0,1,9.844,7.783,7.95,7.95,0,0,1,.551,1.732,6.649,6.649,0,0,1,.175,1.034,6.067,6.067,0,0,1-.375,2.31,4.975,4.975,0,0,1-1.011,1.752,5.714,5.714,0,0,1-1.057.877,12.324,12.324,0,0,1-6.237,1.571h-.02q-.135.006-.27.006c-.122,0-.243,0-.364-.01a.057.057,0,0,1-.019,0,8.782,8.782,0,0,1-8.132-8.6Zm52.485,2.58a6.354,6.354,0,1,1-1.587,8.846A6.354,6.354,0,0,1,381.789,200.789Z" fill="#b36e71"/>
    <path id="Path_27" data-name="Path 27" d="M385.419,208.314a2.309,2.309,0,0,0,1.894-3.627,2.366,2.366,0,0,0-3.214-.576,2.309,2.309,0,0,0,1.32,4.2Z" fill="#b36e71"/>
  </g>
</svg>
